<?xml version="1.0" encoding="UTF-8"?>
<svg id="Laag_1" data-name="Laag 1" xmlns="http://www.w3.org/2000/svg" width="571.57mm" height="550.48mm" viewBox="0 0 1620.19 1560.43">
  <defs>
    <style>
      .cls-1 {
        fill: #ad1917;
      }

      .cls-2 {
        fill: #fff;
      }

      .cls-3 {
        fill: #e52326;
      }
    </style>
  </defs>
  <polygon class="cls-1" points="0 853.25 1620.19 1316.2 1620.19 707.17 0 255.91 0 853.25"/>
  <polygon class="cls-3" points="1620.19 609.02 0 853.25 0 255.91 1620.19 0 1620.19 609.02"/>
  <polygon class="cls-3" points="1620.19 1316.2 0 1560.43 0 963.08 1620.19 707.17 1620.19 1316.2"/>
  <g>
    <path class="cls-2" d="M104.29,769.36v-464.65l60.06-9.36c40.46-6.31,72.06-3.65,92.93,12.7,20.86,16.35,31.61,45.01,31.61,91.16,0,22.13-1.9,38.85-8.85,55.11-6.96,16.26-17.7,30.58-33.51,47.59,17.07,6.82,29.71,22.54,39.83,50.68,5.06,13.75,7.59,32.32,7.59,55.72,0,34.76-6.32,66.73-22.13,93.21-15.8,26.49-42.98,46.54-83.44,54.74l-84.08,13.11ZM172.57,485.61c5.69-.89,18.97-2.32,30.35-11.68,11.37-9.36,20.23-25.91,20.23-58.15s-8.86-46.03-20.23-51.85c-11.38-5.81-24.66-3.11-30.35-2.22v123.9ZM172.57,691.07c5.69-.89,18.97-1.69,30.35-11.68,11.37-9.98,20.23-29.7,20.23-67.63s-8.86-54.89-20.23-61.33c-11.38-6.44-24.66-3.11-30.35-2.22v142.87Z"/>
    <path class="cls-2" d="M456.43,714.46l-35.4-190.46-18.33,2.86v195.98l-68.28,10.64v-464.65l68.28-10.64c81.55-12.71,116.32,28.02,116.32,115.89,0,46.14-12.01,89.74-37.93,111.48l43.62,218.26-68.28,10.64ZM402.69,463.64c9.48-1.48,22.13-4.71,32.24-15.14,10.11-10.42,18.33-28.78,18.33-61.65s-8.22-49.29-18.33-56.57c-10.12-7.27-22.76-5.93-32.24-4.45v137.81Z"/>
    <path class="cls-2" d="M562.64,233.25l156.15-24.34v70.17l-87.88,13.7v122.01l63.22-9.86v74.6l-63.22,9.86v127.7l87.88-13.7v70.17l-156.15,24.34V233.25Z"/>
    <path class="cls-2" d="M934.37,480.64v63.85c-.63,19.07-4.43,36.72-11.38,52.35-5.68,13.53-14.54,26.93-27.18,38.38-12.65,12.08-29.71,20.44-52.47,23.99-22.76,3.55-40.46.61-53.11-7.53-12.64-7.51-20.86-18.24-26.55-30-6.95-13.46-10.75-29.93-11.37-48.8v-273.74c.62-18.43,4.42-36.09,11.37-51.71,5.7-13.54,13.92-27.46,26.55-38.91,12.65-11.45,30.35-20.53,53.11-24.08,22.76-3.55,39.83.11,52.47,7.62,12.64,7.52,21.49,18.78,27.18,30.54,6.95,13.46,10.75,29.93,11.38,48.16v63.85l-63.85,9.95v-63.85c0-12.64-3.16-21-10.11-27.5-3.16-2.67-8.84-3.67-15.81-2.59-12,1.87-17.7,11.6-20.86,20.32-1.89,5.36-2.53,11.14-3.16,17.56v273.74c.63,13.17,4.43,21.44,10.75,27.4,3.16,2.67,7.59,3.88,13.27,2.99,14.55-2.27,20.24-10.74,23.39-20.72,1.9-4.71,2.53-10.51,2.53-17.46v-63.85l63.85-9.95Z"/>
    <path class="cls-2" d="M1096.85,412.33l-53.11,8.28v202.3l-68.27,10.64V168.89l68.27-10.64v192.18l53.11-8.28v-192.18l68.27-10.64v464.65l-68.27,10.64v-202.3Z"/>
    <path class="cls-2" d="M1194.21,536.86c13.27-.18,23.38-4.91,30.97-16.21,3.79-5.02,5.7-12.9,5.7-23.65V129.08l68.27-10.64v378.67c0,25.29-6.32,49.67-22.13,69.21-15.8,19.53-42.35,33.78-82.81,37.56v-67.01Z"/>
    <path class="cls-2" d="M1346.56,111.05l156.15-24.34v70.17l-87.87,13.7v122.01l63.22-9.86v74.6l-63.22,9.86v127.7l87.87-13.7v70.17l-156.15,24.34V111.05Z"/>
  </g>
  <g>
    <path class="cls-2" d="M434.93,1230.09c-.63,8.32-2.53,26.95-6.96,47.86-4.42,20.92-11.38,45.39-21.49,67.2,6.95,6.5,12.64,11.3,17.7,13.67,5.06,3,8.86,4.95,10.75,5.28v72.71c-1.9.3-4.43.06-8.86-1.16-8.22-1.88-20.23-7.59-34.77-16.07-6.95-3.97-13.91-9.21-20.86-15.72-22.76,29.47-49.31,50.68-77.76,55.12-27.18,4.24-50.58-4.13-67.01-20.53-16.44-16.4-26.55-39.48-26.55-67.3,0-52.46,26.55-98.96,52.47-142.83-22.13-42.07-32.87-82.75-32.87-131.43.63-38.02,11.38-66.25,34.14-90.67,11.37-12.52,27.81-20.13,49.31-23.48,42.98-6.7,63.21,15.43,72.7,39.24,10.75,28.04,15.17,67.17-8.85,115.8-12.01,24.63-27.18,50.38-45.52,77.27,20.23,42.99,33.51,64.95,45.52,80.78,8.22-24.68,12.64-56.34,14.54-67.38l54.37,1.64ZM334.41,1366.51c-17.07-24.53-34.14-49.68-53.74-82.65-6.95,11.83-10.75,25.06-13.91,43.26-3.16,18.83-3.79,46.74,7.59,62.03,5.69,7.97,12.64,11.31,21.49,9.93,17.07-2.66,26.55-15.52,38.56-32.57ZM326.2,1078.25c.63-15.91-1.9-28.16-8.86-36.55-3.16-3.94-8.22-5.67-15.17-4.59-13.28,2.07-19.6,14.44-22.13,26.84-3.16,15.03-3.16,37.78,2.53,60.29,2.53,11.62,6.96,23.57,12.64,36.6,15.17-25.76,30.98-57.94,30.98-82.59Z"/>
    <path class="cls-2" d="M570.23,946.01l68.28-10.64v401.43l90.4-14.09v63.22l-158.67,24.74v-464.65Z"/>
    <path class="cls-2" d="M744.08,1383.56l70.16-475.59,83.46-13.01,70.17,453.71-66.38,10.35-12.65-92.85-65.74,10.25-12.65,96.8-66.37,10.35ZM859.77,1051.96l-1.89-11.71-3.79.59-1.9,12.3-19.6,149.72,46.79-7.29-19.6-143.61Z"/>
    <path class="cls-2" d="M1121.5,1324.72l-35.41-190.46-18.33,2.86v195.98l-68.27,10.64v-464.65l68.27-10.64c81.55-12.71,116.33,28.02,116.33,115.89,0,46.14-12.01,89.74-37.93,111.48l43.62,218.26-68.27,10.64ZM1067.76,1073.9c9.49-1.48,22.13-4.71,32.25-15.14,10.11-10.42,18.33-28.78,18.33-61.65s-8.22-49.29-18.33-56.57c-10.12-7.27-22.76-5.93-32.25-4.45v137.81Z"/>
    <path class="cls-2" d="M1340.87,950.41c0-15.16-.63-32.14-5.06-44.72-4.43-11.96-11.38-19.72-22.13-18.04-17.7,3.39-23.39,22.61-23.39,49.79,0,15.81,6.95,31.15,17.08,47.29,10.11,16.12,23.38,32.39,36.67,49.91,15.8,20.93,31.6,42.5,43.62,64.01,12.01,21.52,20.22,44.26,20.22,69.54,0,30.98-5.05,60.85-19.59,84.61-14.54,23.76-37.93,41.32-75.23,47.14-43.62,6.8-68.27-5.8-82.18-28.92-13.92-23.12-17.08-56.13-17.08-90.91l67.01-16.77c0,19.6.63,39.09,5.68,52.86,4.43,14.47,12.01,23.41,26.55,21.15,20.24-3.15,27.82-25.84,27.82-55.54,0-15.17-7.59-31.7-17.71-48.46-5.68-7.96-11.37-16.56-17.7-25.05-13.27-16.9-27.81-36.12-42.98-57.15-15.17-21.02-26.55-43.27-33.51-66.84-3.79-11.42-5.68-23.77-5.68-36.41,0-25.29,5.68-53.36,20.22-76.48,14.54-22.49,36.67-40.48,68.9-46.14,41.09-7.04,65.12,6.28,78.39,28.87,13.27,23.22,17.06,53.6,17.06,79.52l-67,16.76Z"/>
  </g>
</svg>