<?xml version="1.0" encoding="UTF-8"?>
<svg id="Laag_1" data-name="Laag 1" xmlns="http://www.w3.org/2000/svg" width="282.56mm" height="237.46mm" viewBox="0 0 800.95 673.12">
  <defs>
    <style>
      .cls-1 {
        fill: #f7f6f4;
      }

      .cls-2 {
        fill: #f0b29e;
      }

      .cls-3 {
        fill: #474f75;
      }

      .cls-4 {
        fill: #2a2f55;
      }

      .cls-5 {
        fill: #333960;
      }

      .cls-6 {
        fill: #a16b43;
      }

      .cls-7 {
        fill: #f0eeeb;
      }

      .cls-8 {
        fill: #fbdcbf;
      }
    </style>
  </defs>
  <path class="cls-7" d="M604.14,647.59c0,6.39,5.18,25.53,11.57,25.53,6.39,0,11.57-19.14,11.57-25.53,0-6.39-5.18-11.57-11.57-11.57-6.39,0-11.57,5.18-11.57,11.57Z"/>
  <path class="cls-7" d="M537.45,647.59c0,6.39,5.18,25.53,11.57,25.53,6.39,0,11.57-19.14,11.57-25.53,0-6.39-5.18-11.57-11.57-11.57-6.39,0-11.57,5.18-11.57,11.57Z"/>
  <path class="cls-7" d="M584.29,291.35c-164.72,56.91-216.66,357.39-216.66,357.39h216.66s216.66,0,216.66,0c0,0-51.94-300.48-216.66-357.39Z"/>
  <path class="cls-2" d="M528.9,158.32s-18.24-15.69-52.79,40.02c-38.44,61.98-36.14-5.46-66.6-34.4-26.64-25.31-48.07-13.85-46.39-11.22,15.3,24.04,22.1-1.07,36.8,21.56,15.62,24.04,17.42,97.46,65.37,71.4,47.95-26.06,85.69-72.01,63.6-87.36Z"/>
  <path class="cls-2" d="M643.7,156.14s-38.95,3.81-47.91-19.69h-12.97s0,78.53,0,78.53c0,0,66.95,75.27,60.87-58.84Z"/>
  <path class="cls-2" d="M522.07,156.14s38.95,3.81,47.91-19.69h12.96v78.53s-59.28,79.05-60.87-58.84Z"/>
  <path class="cls-7" d="M627.22,193.73c-14.8-14.89-43.84,5.15-43.84,5.15,0,0-29.03-20.04-43.84-5.15-33.34,33.55,33.11,68.78,8.63,122.16h35.2s35.2,0,35.2,0c-24.48-53.39,41.97-88.62,8.63-122.16Z"/>
  <path class="cls-2" d="M549.76,117.77s26.94,6.33,7.66,38.48l59.46.5-45.45-59.08-21.66,20.1Z"/>
  <path class="cls-2" d="M539.5,45.92s-11.73,5.58-12.82,25.05c-1.12,20.16-11.74,21.6-1.85,26.55,9.33,4.68,3.81,23.71,16.69,22.07,21.02-2.67,38.92-19.5,40.56-46.8,1.64-27.3-22.83-38.64-42.58-26.88Z"/>
  <path class="cls-2" d="M627.02,156.75s-11.52,6.86-.84,36.99c1.48,4.18,72.8,51.52,45.86,88.2-35.25,48.01-53.5,1.29-84.43,34.28-6.04,6.45,7.58-1.02,40-.01,43.01,1.33,71.02-17.51,74.23-62.58,3.21-45.08-54.26-105.44-74.82-96.88Z"/>
  <path class="cls-6" d="M539.23,44.16s-22.76,13.89,7.98,31.87c30.4,17.77-3.11,28.87,23.31,49.52,26.43,20.65-20.17,53.5,28.69,81.03,35.92,20.24,67.74-27.99,36.24-55.72-29.6-26.06-.41-31.67-27.34-56.48-15.94-14.69-4.12-79.93-68.88-50.21Z"/>
  <g>
    <path class="cls-2" d="M14.81,342.91s-8.28,17.92.21,43.58c8.49,25.66,11.75-12.27,13.44-21.7,0,0,.85,15.99,3.82,16.56,6.43,1.23,1.15-35.72-2.81-41.75l-14.66,3.32Z"/>
    <path class="cls-2" d="M138.16,9.5s22.93,8.39,18.48,37.34c-1.9,12.4,10.91,22.2,2.06,23.46-8.85,1.26-4.65,16.26-14.53,22.18-9.88,5.92-55.06-5.84-51.11-47.6,0,0-2.78-56.61,45.11-35.38Z"/>
    <path class="cls-2" d="M132.89,87.44s-12.35,1.16-9.1,20.08l-34.1-3.15,3.19-51.87,40.02,34.94Z"/>
    <path class="cls-6" d="M92.8,59.41s-12.13-37.45,8.03-53.62c20.16-16.17,58.22,5.87,58.88,13.4.65,7.53-3.73,11.98-18.66,7.83-17.95-4.99-18.3,9.2-18.7,14.75-.99,13.66-21.29,5.11-29.54,17.63Z"/>
    <path class="cls-2" d="M123.03,41.14s-10.47-13.22-18.03-3.34c-3.65,4.77-.93,27.42,13.45,25.37l4.58-22.03Z"/>
    <path class="cls-1" d="M77.03,110.84l30.01-1.07,3.17.11,26.84.96,32.55,237.32s-43.89,2.68-62.56-31.94c-18.67,34.62-62.56,31.94-62.56,31.94l32.55-237.32Z"/>
    <path class="cls-5" d="M87.69,109.85s-35.14-1.86-51.55,15.69c-16.42,17.55,13.15,87.01,10.59,152.68l-4.67,82.01c20.73,1.13,57.89-68.11,54.5-130.38-3.4-62.27-8.87-120.01-8.87-120.01Z"/>
    <path class="cls-5" d="M126.38,109.85s37.56-1.86,53.98,15.69c16.42,17.55-13.15,87.01-10.59,152.68l4.67,82.01c-20.73,1.13-60.32-68.11-56.92-130.38,3.4-62.27,8.87-120.01,8.87-120.01Z"/>
    <path class="cls-3" d="M87.7,109.85s-31.32,18.68-15.47,38.3c0,0-19.6,26.8,24.54,90.57,0,0-6.76-115.11-9.07-128.88Z"/>
    <rect class="cls-1" x="101.39" y="99.14" width="11.08" height="13.07" transform="translate(213.86 211.36) rotate(-180)"/>
    <g>
      <polygon class="cls-5" points="166.8 316.22 96.96 316.22 135.93 636.02 174.9 636.02 166.8 316.22"/>
      <polygon class="cls-5" points="47.12 316.22 116.96 316.22 77.99 635.69 39.02 635.69 47.12 316.22"/>
    </g>
    <path class="cls-5" d="M33.87,128.16S-19.49,213.75,7.74,345.29l30.01,2.69s-14.43-76.39,8.73-131.17l-12.62-88.65Z"/>
    <path class="cls-2" d="M312.04,169.79s19.68,1.48,40.74-15.47c21.06-16.95-15.6-6.7-25.04-4.99,0,0,14.68-6.4,14.17-9.38-1.11-6.46-33.85,11.44-38.12,17.27l8.25,12.57Z"/>
    <path class="cls-5" d="M155.59,112.99s8.9,235.67,168.93,62.9l-23.34-25.48s-76.98,97.04-98.7,9.97c-11-44.08-46.88-47.39-46.88-47.39Z"/>
    <path class="cls-3" d="M126.4,109.85s31.32,18.68,15.47,38.3c0,0,19.6,26.8-24.54,90.57,0,0,6.76-115.11,9.07-128.88Z"/>
    <path class="cls-1" d="M126.54,109.65l-1.92-11.86c-.09-.53-.58-.9-1.12-.83l-15.46,2.06c-.55.07-.93.58-.86,1.12l1.27,9.51c.43,3.24,3.67,5.32,6.8,4.36l10.6-3.24c.48-.15.77-.62.69-1.12Z"/>
    <path class="cls-1" d="M87.55,109.65l1.92-11.86c.09-.53.58-.9,1.12-.83l15.46,2.06c.55.07.93.58.86,1.12l-1.27,9.51c-.43,3.24-3.67,5.32-6.8,4.36l-10.6-3.24c-.48-.15-.77-.62-.69-1.12Z"/>
    <path class="cls-4" d="M203.65,651.13s-2.65-7.72-9.39-8.64l-29.1-6.79h-20.83s-5.91,2.99-5.5,15.44h64.82Z"/>
    <path class="cls-4" d="M12.06,651.13s2.65-7.72,9.39-8.64l29.1-6.79h20.83s5.91,2.99,5.5,15.44H12.06Z"/>
    <g>
      <polygon class="cls-4" points="105.14 117.35 128.66 129.12 128.66 105.6 105.14 117.35"/>
      <polygon class="cls-4" points="109.09 117.35 85.57 129.12 85.57 105.6 109.09 117.35"/>
      <path class="cls-4" d="M99.87,117.35c0,3.98,3.22,7.2,7.2,7.2,3.98,0,7.2-3.22,7.2-7.2,0-3.98-3.22-7.2-7.2-7.2-3.98,0-7.2,3.22-7.2,7.2Z"/>
    </g>
  </g>
  <path class="cls-1" d="M372.63,141.11h0c7.48,0,13.55-6.07,13.55-13.55v-44.77s-27.1,0-27.1,0v44.77c0,7.48,6.07,13.55,13.55,13.55Z"/>
  <path class="cls-1" d="M343.18,136.75h0c7.48,0,13.55-6.07,13.55-13.55v-44.77s-27.1,0-27.1,0v44.77c0,7.48,6.07,13.55,13.55,13.55Z"/>
  <polygon class="cls-1" points="369.86 174.22 371.46 136.45 371.71 136.45 373.56 136.45 373.81 136.45 375.41 174.22 386.18 180.24 373.56 180.24 371.71 180.24 359.08 180.24 369.86 174.22"/>
  <polygon class="cls-1" points="340.4 168.6 342 130.84 342.25 130.84 344.1 130.84 344.35 130.84 345.95 168.6 356.73 174.62 344.1 174.62 342.25 174.62 329.63 174.62 340.4 168.6"/>
  <path class="cls-8" d="M372.64,101.68h0c5.26,0,9.52,4.27,9.52,9.52v25.55h-19.05v-25.55c0-5.26,4.27-9.52,9.52-9.52Z" transform="translate(745.29 238.43) rotate(180)"/>
  <path class="cls-8" d="M343.18,131.65h0c5.26,0,9.52-4.26,9.52-9.53v-25.55s-19.05,0-19.05,0v25.55c0,5.26,4.26,9.53,9.52,9.53Z"/>
</svg>