<?xml version="1.0" encoding="UTF-8"?>
<svg id="Laag_1" data-name="Laag 1" xmlns="http://www.w3.org/2000/svg" width="1005.94mm" height="157.02mm" viewBox="0 0 2851.47 445.09">
  <defs>
    <style>
      .cls-1 {
        fill: #afc410;
      }

      .cls-2 {
        fill: #652d87;
      }

      .cls-3 {
        fill: #35b6b2;
      }

      .cls-4 {
        fill: #e52326;
      }

      .cls-5 {
        fill: #a38d89;
      }
    </style>
  </defs>
  <g>
    <polygon class="cls-2" points="598.81 383.68 508.85 294.12 398.05 353.53 438.25 85.83 639.01 115.99 598.81 383.68"/>
    <polygon class="cls-3" points="2441.69 389.78 2330.25 329 2240.52 417.05 2204.15 148.81 2405.33 121.55 2441.69 389.78"/>
    <polygon class="cls-1" points="907.79 415.53 812.64 331.52 705.58 397.43 729.73 127.82 931.94 145.93 907.79 415.53"/>
    <polygon class="cls-4" points="2749.15 340.42 2634.79 285.35 2549.61 377.81 2499.74 111.75 2699.28 74.36 2749.15 340.42"/>
    <polygon class="cls-3" points="1218.52 431.32 1117.49 354.48 1015.53 428.04 1019.91 157.38 1222.9 160.66 1218.52 431.32"/>
    <polygon class="cls-4" points="1320.51 171.14 1316.25 434.68 1325.79 434.84 1418.09 368.24 1519.12 445.09 1523.5 174.43 1320.51 171.14"/>
    <polygon class="cls-2" points="1827.68 433.4 1722.43 362.43 1624.83 441.67 1613.8 171.2 1816.65 162.93 1827.68 433.4"/>
    <polygon class="cls-4" points="292.25 344.71 206.19 251.4 92.95 306.02 144.53 40.29 343.83 78.97 292.25 344.71"/>
    <polygon class="cls-1" points="2133.93 423.04 2025.85 356.49 1931.6 439.71 1909.38 169.93 2111.71 153.26 2133.93 423.04"/>
  </g>
  <path class="cls-5" d="M1471.43,176.81c-193.05-3.12-389.19-13.73-586.25-31.76C358.65,96.89,3.53,11.24,0,10.38L2.53,0c3.52.86,358.04,86.34,883.84,134.43,308.78,28.24,615.33,38.24,911.15,29.74,369.71-10.63,723.59-50.37,1051.8-118.11l2.16,10.47c-328.86,67.87-683.41,107.69-1053.79,118.33-107.47,3.09-216.37,3.74-326.26,1.96Z"/>
</svg>